<svg width="83" height="303" viewBox="0 0 83 303" fill="none" xmlns="http://www.w3.org/2000/svg">
<g opacity="0.6">
<path d="M22.9298 -30C24.3564 -30 25.4363 -29.395 26.1696 -28.1851C26.9162 -26.9885 27.2895 -25.2468 27.2895 -22.9599C27.2895 -20.673 26.9162 -18.9246 26.1696 -17.7147C25.4363 -16.5048 24.3564 -15.8998 22.9298 -15.8998C21.5166 -15.8998 20.4367 -16.5048 19.6901 -17.7147C18.9435 -18.9246 18.5701 -20.673 18.5701 -22.9599C18.5701 -25.2335 18.9435 -26.9752 19.6901 -28.1851C20.4367 -29.395 21.5166 -30 22.9298 -30ZM19.9901 -22.9599C19.9901 -21.3378 20.1367 -20.068 20.43 -19.1506L24.8697 -27.9857C24.4031 -28.6106 23.7565 -28.923 22.9298 -28.923C22.0099 -28.923 21.29 -28.4311 20.77 -27.4472C20.25 -26.4766 19.9901 -24.9808 19.9901 -22.9599ZM22.9298 -16.9967C23.8631 -16.9967 24.5897 -17.482 25.1097 -18.4526C25.6297 -19.4365 25.8896 -20.9389 25.8896 -22.9599C25.8896 -24.675 25.723 -26.0046 25.3897 -26.9486L20.95 -18.0338C21.43 -17.3424 22.0899 -16.9967 22.9298 -16.9967Z" fill="url(#paint0_linear_414_510)"/>
<path d="M24.1298 5.63655H27.0696V6.69356H19.4501V5.63655H22.8499V-5.57181L19.6101 -3.63727L19.0501 -4.53474L23.0498 -7.00776H24.1298V5.63655Z" fill="url(#paint1_linear_414_510)"/>
<path d="M22.9298 15.5856C24.3564 15.5856 25.4363 16.1906 26.1696 17.4005C26.9162 18.5971 27.2895 20.3389 27.2895 22.6257C27.2895 24.9126 26.9162 26.661 26.1696 27.8709C25.4363 29.0808 24.3564 29.6858 22.9298 29.6858C21.5166 29.6858 20.4367 29.0808 19.6901 27.8709C18.9435 26.661 18.5701 24.9126 18.5701 22.6257C18.5701 20.3522 18.9435 18.6104 19.6901 17.4005C20.4367 16.1906 21.5166 15.5856 22.9298 15.5856ZM19.9901 22.6257C19.9901 24.2478 20.1367 25.5176 20.43 26.435L24.8697 17.5999C24.4031 16.975 23.7565 16.6626 22.9298 16.6626C22.0099 16.6626 21.29 17.1545 20.77 18.1384C20.25 19.109 19.9901 20.6048 19.9901 22.6257ZM22.9298 28.5889C23.8631 28.5889 24.5897 28.1036 25.1097 27.133C25.6297 26.1491 25.8896 24.6467 25.8896 22.6257C25.8896 20.9106 25.723 19.581 25.3897 18.637L20.95 27.5518C21.43 28.2432 22.0899 28.5889 22.9298 28.5889Z" fill="url(#paint2_linear_414_510)"/>
<path d="M24.1298 51.2221H27.0696V52.2792H19.4501V51.2221H22.8499V40.0138L19.6101 41.9483L19.0501 41.0509L23.0498 38.5778H24.1298V51.2221Z" fill="url(#paint3_linear_414_510)"/>
<path d="M24.1298 74.015H27.0696V75.072H19.4501V74.015H22.8499V62.8066L19.6101 64.7411L19.0501 63.8437L23.0498 61.3706H24.1298V74.015Z" fill="url(#paint4_linear_414_510)"/>
<path d="M22.9298 83.964C24.3564 83.964 25.4363 84.569 26.1696 85.7789C26.9162 86.9755 27.2895 88.7173 27.2895 91.0041C27.2895 93.291 26.9162 95.0394 26.1696 96.2493C25.4363 97.4593 24.3564 98.0642 22.9298 98.0642C21.5166 98.0642 20.4367 97.4593 19.6901 96.2493C18.9435 95.0394 18.5701 93.291 18.5701 91.0041C18.5701 88.7306 18.9435 86.9888 19.6901 85.7789C20.4367 84.569 21.5166 83.964 22.9298 83.964ZM19.9901 91.0041C19.9901 92.6262 20.1367 93.896 20.43 94.8134L24.8697 85.9783C24.4031 85.3534 23.7565 85.041 22.9298 85.041C22.0099 85.041 21.29 85.5329 20.77 86.5168C20.25 87.4874 19.9901 88.9832 19.9901 91.0041ZM22.9298 96.9673C23.8631 96.9673 24.5897 96.482 25.1097 95.5114C25.6297 94.5275 25.8896 93.0251 25.8896 91.0041C25.8896 89.289 25.723 87.9594 25.3897 87.0154L20.95 95.9302C21.43 96.6216 22.0899 96.9673 22.9298 96.9673Z" fill="url(#paint5_linear_414_510)"/>
<path d="M24.1298 119.601H27.0696V120.658H19.4501V119.601H22.8499V108.392L19.6101 110.327L19.0501 109.429L23.0498 106.956H24.1298V119.601Z" fill="url(#paint6_linear_414_510)"/>
<path d="M22.9298 129.55C24.3564 129.55 25.4363 130.155 26.1696 131.365C26.9162 132.561 27.2895 134.303 27.2895 136.59C27.2895 138.877 26.9162 140.625 26.1696 141.835C25.4363 143.045 24.3564 143.65 22.9298 143.65C21.5166 143.65 20.4367 143.045 19.6901 141.835C18.9435 140.625 18.5701 138.877 18.5701 136.59C18.5701 134.316 18.9435 132.574 19.6901 131.365C20.4367 130.155 21.5166 129.55 22.9298 129.55ZM19.9901 136.59C19.9901 138.212 20.1367 139.482 20.43 140.399L24.8697 131.564C24.4031 130.939 23.7565 130.627 22.9298 130.627C22.0099 130.627 21.29 131.119 20.77 132.102C20.25 133.073 19.9901 134.569 19.9901 136.59ZM22.9298 142.553C23.8631 142.553 24.5897 142.068 25.1097 141.097C25.6297 140.113 25.8896 138.611 25.8896 136.59C25.8896 134.875 25.723 133.545 25.3897 132.601L20.95 141.516C21.43 142.207 22.0899 142.553 22.9298 142.553Z" fill="url(#paint7_linear_414_510)"/>
<path d="M22.9298 152.342C24.3564 152.342 25.4363 152.947 26.1696 154.157C26.9162 155.354 27.2895 157.096 27.2895 159.383C27.2895 161.669 26.9162 163.418 26.1696 164.628C25.4363 165.838 24.3564 166.443 22.9298 166.443C21.5166 166.443 20.4367 165.838 19.6901 164.628C18.9435 163.418 18.5701 161.669 18.5701 159.383C18.5701 157.109 18.9435 155.367 19.6901 154.157C20.4367 152.947 21.5166 152.342 22.9298 152.342ZM19.9901 159.383C19.9901 161.005 20.1367 162.274 20.43 163.192L24.8697 154.357C24.4031 153.732 23.7565 153.419 22.9298 153.419C22.0099 153.419 21.29 153.911 20.77 154.895C20.25 155.866 19.9901 157.362 19.9901 159.383ZM22.9298 165.346C23.8631 165.346 24.5897 164.86 25.1097 163.89C25.6297 162.906 25.8896 161.404 25.8896 159.383C25.8896 157.667 25.723 156.338 25.3897 155.394L20.95 164.309C21.43 165 22.0899 165.346 22.9298 165.346Z" fill="url(#paint8_linear_414_510)"/>
<path d="M24.1298 187.979H27.0696V189.036H19.4501V187.979H22.8499V176.771L19.6101 178.705L19.0501 177.808L23.0498 175.335H24.1298V187.979Z" fill="url(#paint9_linear_414_510)"/>
<path d="M22.9298 197.928C24.3564 197.928 25.4363 198.533 26.1696 199.743C26.9162 200.94 27.2895 202.681 27.2895 204.968C27.2895 207.255 26.9162 209.003 26.1696 210.213C25.4363 211.423 24.3564 212.028 22.9298 212.028C21.5166 212.028 20.4367 211.423 19.6901 210.213C18.9435 209.003 18.5701 207.255 18.5701 204.968C18.5701 202.695 18.9435 200.953 19.6901 199.743C20.4367 198.533 21.5166 197.928 22.9298 197.928ZM19.9901 204.968C19.9901 206.59 20.1367 207.86 20.43 208.777L24.8697 199.942C24.4031 199.317 23.7565 199.005 22.9298 199.005C22.0099 199.005 21.29 199.497 20.77 200.481C20.25 201.451 19.9901 202.947 19.9901 204.968ZM22.9298 210.931C23.8631 210.931 24.5897 210.446 25.1097 209.475C25.6297 208.492 25.8896 206.989 25.8896 204.968C25.8896 203.253 25.723 201.923 25.3897 200.979L20.95 209.894C21.43 210.586 22.0899 210.931 22.9298 210.931Z" fill="url(#paint10_linear_414_510)"/>
<path d="M24.1298 233.565H27.0696V234.622H19.4501V233.565H22.8499V222.356L19.6101 224.291L19.0501 223.393L23.0498 220.92H24.1298V233.565Z" fill="url(#paint11_linear_414_510)"/>
<path d="M24.1298 256.357H27.0696V257.414H19.4501V256.357H22.8499V245.149L19.6101 247.084L19.0501 246.186L23.0498 243.713H24.1298V256.357Z" fill="url(#paint12_linear_414_510)"/>
<path d="M60.0701 15.5856C61.4967 15.5856 62.5766 16.1906 63.3099 17.4005C64.0565 18.5971 64.4298 20.3389 64.4298 22.6257C64.4298 24.9126 64.0565 26.661 63.3099 27.8709C62.5766 29.0808 61.4967 29.6858 60.0701 29.6858C58.6569 29.6858 57.577 29.0808 56.8304 27.8709C56.0838 26.661 55.7104 24.9126 55.7104 22.6257C55.7104 20.3522 56.0838 18.6104 56.8304 17.4005C57.577 16.1906 58.6569 15.5856 60.0701 15.5856ZM57.1303 22.6257C57.1303 24.2478 57.277 25.5176 57.5703 26.435L62.01 17.5999C61.5434 16.975 60.8968 16.6626 60.0701 16.6626C59.1502 16.6626 58.4303 17.1545 57.9103 18.1384C57.3903 19.109 57.1303 20.6048 57.1303 22.6257ZM60.0701 28.5889C61.0034 28.5889 61.73 28.1036 62.25 27.133C62.77 26.1491 63.0299 24.6467 63.0299 22.6257C63.0299 20.9106 62.8633 19.581 62.53 18.637L58.0903 27.5518C58.5703 28.2432 59.2302 28.5889 60.0701 28.5889Z" fill="url(#paint13_linear_414_510)"/>
<path d="M61.2701 51.2221H64.2099V52.2792H56.5904V51.2221H59.9902V40.0138L56.7504 41.9483L56.1904 41.0509L60.1901 38.5778H61.2701V51.2221Z" fill="url(#paint14_linear_414_510)"/>
<path d="M60.0701 61.1712C61.4967 61.1712 62.5766 61.7762 63.3099 62.9861C64.0565 64.1827 64.4298 65.9245 64.4298 68.2113C64.4298 70.4982 64.0565 72.2466 63.3099 73.4565C62.5766 74.6664 61.4967 75.2714 60.0701 75.2714C58.6569 75.2714 57.577 74.6664 56.8304 73.4565C56.0838 72.2466 55.7104 70.4982 55.7104 68.2113C55.7104 65.9378 56.0838 64.196 56.8304 62.9861C57.577 61.7762 58.6569 61.1712 60.0701 61.1712ZM57.1303 68.2113C57.1303 69.8334 57.277 71.1032 57.5703 72.0206L62.01 63.1855C61.5434 62.5606 60.8968 62.2482 60.0701 62.2482C59.1502 62.2482 58.4303 62.7401 57.9103 63.724C57.3903 64.6946 57.1303 66.1904 57.1303 68.2113ZM60.0701 74.1745C61.0034 74.1745 61.73 73.6892 62.25 72.7186C62.77 71.7347 63.0299 70.2323 63.0299 68.2113C63.0299 66.4962 62.8633 65.1666 62.53 64.2226L58.0903 73.1374C58.5703 73.8288 59.2302 74.1745 60.0701 74.1745Z" fill="url(#paint15_linear_414_510)"/>
<path d="M60.0701 83.964C61.4967 83.964 62.5766 84.569 63.3099 85.7789C64.0565 86.9755 64.4298 88.7173 64.4298 91.0041C64.4298 93.291 64.0565 95.0394 63.3099 96.2493C62.5766 97.4593 61.4967 98.0642 60.0701 98.0642C58.6569 98.0642 57.577 97.4593 56.8304 96.2493C56.0838 95.0394 55.7104 93.291 55.7104 91.0041C55.7104 88.7306 56.0838 86.9888 56.8304 85.7789C57.577 84.569 58.6569 83.964 60.0701 83.964ZM57.1303 91.0041C57.1303 92.6262 57.277 93.896 57.5703 94.8134L62.01 85.9783C61.5434 85.3534 60.8968 85.041 60.0701 85.041C59.1502 85.041 58.4303 85.5329 57.9103 86.5168C57.3903 87.4874 57.1303 88.9832 57.1303 91.0041ZM60.0701 96.9673C61.0034 96.9673 61.73 96.482 62.25 95.5114C62.77 94.5275 63.0299 93.0251 63.0299 91.0041C63.0299 89.289 62.8633 87.9594 62.53 87.0154L58.0903 95.9302C58.5703 96.6216 59.2302 96.9673 60.0701 96.9673Z" fill="url(#paint16_linear_414_510)"/>
<path d="M61.2701 119.601H64.2099V120.658H56.5904V119.601H59.9902V108.392L56.7504 110.327L56.1904 109.429L60.1901 106.956H61.2701V119.601Z" fill="url(#paint17_linear_414_510)"/>
<path d="M60.0701 129.55C61.4967 129.55 62.5766 130.155 63.3099 131.365C64.0565 132.561 64.4298 134.303 64.4298 136.59C64.4298 138.877 64.0565 140.625 63.3099 141.835C62.5766 143.045 61.4967 143.65 60.0701 143.65C58.6569 143.65 57.577 143.045 56.8304 141.835C56.0838 140.625 55.7104 138.877 55.7104 136.59C55.7104 134.316 56.0838 132.574 56.8304 131.365C57.577 130.155 58.6569 129.55 60.0701 129.55ZM57.1303 136.59C57.1303 138.212 57.277 139.482 57.5703 140.399L62.01 131.564C61.5434 130.939 60.8968 130.627 60.0701 130.627C59.1502 130.627 58.4303 131.119 57.9103 132.102C57.3903 133.073 57.1303 134.569 57.1303 136.59ZM60.0701 142.553C61.0034 142.553 61.73 142.068 62.25 141.097C62.77 140.113 63.0299 138.611 63.0299 136.59C63.0299 134.875 62.8633 133.545 62.53 132.601L58.0903 141.516C58.5703 142.207 59.2302 142.553 60.0701 142.553Z" fill="url(#paint18_linear_414_510)"/>
<path d="M61.2701 165.186H64.2099V166.243H56.5904V165.186H59.9902V153.978L56.7504 155.912L56.1904 155.015L60.1901 152.542H61.2701V165.186Z" fill="url(#paint19_linear_414_510)"/>
<path d="M60.0701 175.135C61.4967 175.135 62.5766 175.74 63.3099 176.95C64.0565 178.147 64.4298 179.888 64.4298 182.175C64.4298 184.462 64.0565 186.211 63.3099 187.421C62.5766 188.63 61.4967 189.235 60.0701 189.235C58.6569 189.235 57.577 188.63 56.8304 187.421C56.0838 186.211 55.7104 184.462 55.7104 182.175C55.7104 179.902 56.0838 178.16 56.8304 176.95C57.577 175.74 58.6569 175.135 60.0701 175.135ZM57.1303 182.175C57.1303 183.797 57.277 185.067 57.5703 185.985L62.01 177.15C61.5434 176.525 60.8968 176.212 60.0701 176.212C59.1502 176.212 58.4303 176.704 57.9103 177.688C57.3903 178.659 57.1303 180.154 57.1303 182.175ZM60.0701 188.139C61.0034 188.139 61.73 187.653 62.25 186.683C62.77 185.699 63.0299 184.196 63.0299 182.175C63.0299 180.46 62.8633 179.131 62.53 178.187L58.0903 187.101C58.5703 187.793 59.2302 188.139 60.0701 188.139Z" fill="url(#paint20_linear_414_510)"/>
<path d="M60.0701 197.928C61.4967 197.928 62.5766 198.533 63.3099 199.743C64.0565 200.94 64.4298 202.681 64.4298 204.968C64.4298 207.255 64.0565 209.003 63.3099 210.213C62.5766 211.423 61.4967 212.028 60.0701 212.028C58.6569 212.028 57.577 211.423 56.8304 210.213C56.0838 209.003 55.7104 207.255 55.7104 204.968C55.7104 202.695 56.0838 200.953 56.8304 199.743C57.577 198.533 58.6569 197.928 60.0701 197.928ZM57.1303 204.968C57.1303 206.59 57.277 207.86 57.5703 208.777L62.01 199.942C61.5434 199.317 60.8968 199.005 60.0701 199.005C59.1502 199.005 58.4303 199.497 57.9103 200.481C57.3903 201.451 57.1303 202.947 57.1303 204.968ZM60.0701 210.931C61.0034 210.931 61.73 210.446 62.25 209.475C62.77 208.492 63.0299 206.989 63.0299 204.968C63.0299 203.253 62.8633 201.923 62.53 200.979L58.0903 209.894C58.5703 210.586 59.2302 210.931 60.0701 210.931Z" fill="url(#paint21_linear_414_510)"/>
<path d="M61.2701 233.565H64.2099V234.622H56.5904V233.565H59.9902V222.356L56.7504 224.291L56.1904 223.393L60.1901 220.92H61.2701V233.565Z" fill="url(#paint22_linear_414_510)"/>
<path d="M60.0701 243.514C61.4967 243.514 62.5766 244.119 63.3099 245.329C64.0565 246.525 64.4298 248.267 64.4298 250.554C64.4298 252.841 64.0565 254.589 63.3099 255.799C62.5766 257.009 61.4967 257.614 60.0701 257.614C58.6569 257.614 57.577 257.009 56.8304 255.799C56.0838 254.589 55.7104 252.841 55.7104 250.554C55.7104 248.28 56.0838 246.538 56.8304 245.329C57.577 244.119 58.6569 243.514 60.0701 243.514ZM57.1303 250.554C57.1303 252.176 57.277 253.446 57.5703 254.363L62.01 245.528C61.5434 244.903 60.8968 244.591 60.0701 244.591C59.1502 244.591 58.4303 245.083 57.9103 246.066C57.3903 247.037 57.1303 248.533 57.1303 250.554ZM60.0701 256.517C61.0034 256.517 61.73 256.032 62.25 255.061C62.77 254.077 63.0299 252.575 63.0299 250.554C63.0299 248.839 62.8633 247.509 62.53 246.565L58.0903 255.48C58.5703 256.171 59.2302 256.517 60.0701 256.517Z" fill="url(#paint23_linear_414_510)"/>
<path d="M61.2701 279.15H64.2099V280.207H56.5904V279.15H59.9902V267.942L56.7504 269.876L56.1904 268.979L60.1901 266.506H61.2701V279.15Z" fill="url(#paint24_linear_414_510)"/>
<path d="M61.2701 301.943H64.2099V303H56.5904V301.943H59.9902V290.735L56.7504 292.669L56.1904 291.772L60.1901 289.299H61.2701V301.943Z" fill="url(#paint25_linear_414_510)"/>
<path d="M4.3597 38.3784C5.78627 38.3784 6.86619 38.9834 7.59948 40.1933C8.34609 41.3899 8.7194 43.1317 8.7194 45.4185C8.7194 47.7054 8.34609 49.4538 7.59948 50.6637C6.86619 51.8736 5.78627 52.4786 4.3597 52.4786C2.94646 52.4786 1.86654 51.8736 1.11992 50.6637C0.373308 49.4538 0 47.7054 0 45.4185C0 43.145 0.373308 41.4032 1.11992 40.1933C1.86654 38.9834 2.94646 38.3784 4.3597 38.3784ZM1.4199 45.4185C1.4199 47.0406 1.56656 48.3104 1.85987 49.2278L6.29957 40.3927C5.83293 39.7678 5.18631 39.4554 4.3597 39.4554C3.43976 39.4554 2.71981 39.9473 2.19985 40.9312C1.67988 41.9018 1.4199 43.3976 1.4199 45.4185ZM4.3597 51.3817C5.29297 51.3817 6.01959 50.8964 6.53955 49.9258C7.05951 48.9419 7.3195 47.4395 7.3195 45.4185C7.3195 43.7034 7.15284 42.3738 6.81953 41.4298L2.37984 50.3446C2.8598 51.036 3.51976 51.3817 4.3597 51.3817Z" fill="url(#paint26_linear_414_510)"/>
<path d="M4.3597 61.1712C5.78627 61.1712 6.86619 61.7762 7.59948 62.9861C8.34609 64.1827 8.7194 65.9245 8.7194 68.2113C8.7194 70.4982 8.34609 72.2466 7.59948 73.4565C6.86619 74.6664 5.78627 75.2714 4.3597 75.2714C2.94646 75.2714 1.86654 74.6664 1.11992 73.4565C0.373308 72.2466 0 70.4982 0 68.2113C0 65.9378 0.373308 64.196 1.11992 62.9861C1.86654 61.7762 2.94646 61.1712 4.3597 61.1712ZM1.4199 68.2113C1.4199 69.8334 1.56656 71.1032 1.85987 72.0206L6.29957 63.1855C5.83293 62.5606 5.18631 62.2482 4.3597 62.2482C3.43976 62.2482 2.71981 62.7401 2.19985 63.724C1.67988 64.6946 1.4199 66.1904 1.4199 68.2113ZM4.3597 74.1745C5.29297 74.1745 6.01959 73.6892 6.53955 72.7186C7.05951 71.7347 7.3195 70.2323 7.3195 68.2113C7.3195 66.4962 7.15284 65.1666 6.81953 64.2226L2.37984 73.1374C2.8598 73.8288 3.51976 74.1745 4.3597 74.1745Z" fill="url(#paint27_linear_414_510)"/>
<path d="M5.55962 96.8078H8.49941V97.8648H0.879939V96.8078H4.27971V85.5994L1.03993 87.5339L0.479967 86.6365L4.47969 84.1635H5.55962V96.8078Z" fill="url(#paint28_linear_414_510)"/>
<path d="M4.3597 106.757C5.78627 106.757 6.86619 107.362 7.59948 108.572C8.34609 109.768 8.7194 111.51 8.7194 113.797C8.7194 116.084 8.34609 117.832 7.59948 119.042C6.86619 120.252 5.78627 120.857 4.3597 120.857C2.94646 120.857 1.86654 120.252 1.11992 119.042C0.373308 117.832 0 116.084 0 113.797C0 111.523 0.373308 109.782 1.11992 108.572C1.86654 107.362 2.94646 106.757 4.3597 106.757ZM1.4199 113.797C1.4199 115.419 1.56656 116.689 1.85987 117.606L6.29957 108.771C5.83293 108.146 5.18631 107.834 4.3597 107.834C3.43976 107.834 2.71981 108.326 2.19985 109.31C1.67988 110.28 1.4199 111.776 1.4199 113.797ZM4.3597 119.76C5.29297 119.76 6.01959 119.275 6.53955 118.304C7.05951 117.32 7.3195 115.818 7.3195 113.797C7.3195 112.082 7.15284 110.752 6.81953 109.808L2.37984 118.723C2.8598 119.414 3.51976 119.76 4.3597 119.76Z" fill="url(#paint29_linear_414_510)"/>
<path d="M5.55962 142.393H8.49941V143.45H0.879939V142.393H4.27971V131.185L1.03993 133.12L0.479967 132.222L4.47969 129.749H5.55962V142.393Z" fill="url(#paint30_linear_414_510)"/>
<path d="M5.55962 165.186H8.49941V166.243H0.879939V165.186H4.27971V153.978L1.03993 155.912L0.479967 155.015L4.47969 152.542H5.55962V165.186Z" fill="url(#paint31_linear_414_510)"/>
<path d="M42.6999 5.63655H45.6397V6.69356H38.0202V5.63655H41.42V-5.57181L38.1802 -3.63727L37.6203 -4.53474L41.62 -7.00776H42.6999V5.63655Z" fill="url(#paint32_linear_414_510)"/>
<path d="M41.5 15.5856C42.9266 15.5856 44.0065 16.1906 44.7398 17.4005C45.4864 18.5971 45.8597 20.3389 45.8597 22.6257C45.8597 24.9126 45.4864 26.661 44.7398 27.8709C44.0065 29.0808 42.9266 29.6858 41.5 29.6858C40.0868 29.6858 39.0068 29.0808 38.2602 27.8709C37.5136 26.661 37.1403 24.9126 37.1403 22.6257C37.1403 20.3522 37.5136 18.6104 38.2602 17.4005C39.0068 16.1906 40.0868 15.5856 41.5 15.5856ZM38.5602 22.6257C38.5602 24.2478 38.7069 25.5176 39.0002 26.435L43.4399 17.5999C42.9732 16.975 42.3266 16.6626 41.5 16.6626C40.5801 16.6626 39.8601 17.1545 39.3401 18.1384C38.8202 19.109 38.5602 20.6048 38.5602 22.6257ZM41.5 28.5889C42.4333 28.5889 43.1599 28.1036 43.6798 27.133C44.1998 26.1491 44.4598 24.6467 44.4598 22.6257C44.4598 20.9106 44.2931 19.581 43.9598 18.637L39.5201 27.5518C40.0001 28.2432 40.6601 28.5889 41.5 28.5889Z" fill="url(#paint33_linear_414_510)"/>
<path d="M42.6999 51.2221H45.6397V52.2792H38.0202V51.2221H41.42V40.0138L38.1802 41.9483L37.6203 41.0509L41.62 38.5778H42.6999V51.2221Z" fill="url(#paint34_linear_414_510)"/>
<path d="M42.6999 74.015H45.6397V75.072H38.0202V74.015H41.42V62.8066L38.1802 64.7411L37.6203 63.8437L41.62 61.3706H42.6999V74.015Z" fill="url(#paint35_linear_414_510)"/>
<path d="M41.5 83.964C42.9266 83.964 44.0065 84.569 44.7398 85.7789C45.4864 86.9755 45.8597 88.7173 45.8597 91.0041C45.8597 93.291 45.4864 95.0394 44.7398 96.2493C44.0065 97.4593 42.9266 98.0642 41.5 98.0642C40.0868 98.0642 39.0068 97.4593 38.2602 96.2493C37.5136 95.0394 37.1403 93.291 37.1403 91.0041C37.1403 88.7306 37.5136 86.9888 38.2602 85.7789C39.0068 84.569 40.0868 83.964 41.5 83.964ZM38.5602 91.0041C38.5602 92.6262 38.7069 93.896 39.0002 94.8134L43.4399 85.9783C42.9732 85.3534 42.3266 85.041 41.5 85.041C40.5801 85.041 39.8601 85.5329 39.3401 86.5168C38.8202 87.4874 38.5602 88.9832 38.5602 91.0041ZM41.5 96.9673C42.4333 96.9673 43.1599 96.482 43.6798 95.5114C44.1998 94.5275 44.4598 93.0251 44.4598 91.0041C44.4598 89.289 44.2931 87.9594 43.9598 87.0154L39.5201 95.9302C40.0001 96.6216 40.6601 96.9673 41.5 96.9673Z" fill="url(#paint36_linear_414_510)"/>
<path d="M42.6999 119.601H45.6397V120.658H38.0202V119.601H41.42V108.392L38.1802 110.327L37.6203 109.429L41.62 106.956H42.6999V119.601Z" fill="url(#paint37_linear_414_510)"/>
<path d="M42.6999 142.393H45.6397V143.45H38.0202V142.393H41.42V131.185L38.1802 133.12L37.6203 132.222L41.62 129.749H42.6999V142.393Z" fill="url(#paint38_linear_414_510)"/>
<path d="M41.5 152.342C42.9266 152.342 44.0065 152.947 44.7398 154.157C45.4864 155.354 45.8597 157.096 45.8597 159.383C45.8597 161.669 45.4864 163.418 44.7398 164.628C44.0065 165.838 42.9266 166.443 41.5 166.443C40.0868 166.443 39.0068 165.838 38.2602 164.628C37.5136 163.418 37.1403 161.669 37.1403 159.383C37.1403 157.109 37.5136 155.367 38.2602 154.157C39.0068 152.947 40.0868 152.342 41.5 152.342ZM38.5602 159.383C38.5602 161.005 38.7069 162.274 39.0002 163.192L43.4399 154.357C42.9732 153.732 42.3266 153.419 41.5 153.419C40.5801 153.419 39.8601 153.911 39.3401 154.895C38.8202 155.866 38.5602 157.362 38.5602 159.383ZM41.5 165.346C42.4333 165.346 43.1599 164.86 43.6798 163.89C44.1998 162.906 44.4598 161.404 44.4598 159.383C44.4598 157.667 44.2931 156.338 43.9598 155.394L39.5201 164.309C40.0001 165 40.6601 165.346 41.5 165.346Z" fill="url(#paint39_linear_414_510)"/>
<path d="M42.6999 187.979H45.6397V189.036H38.0202V187.979H41.42V176.771L38.1802 178.705L37.6203 177.808L41.62 175.335H42.6999V187.979Z" fill="url(#paint40_linear_414_510)"/>
<path d="M41.5 197.928C42.9266 197.928 44.0065 198.533 44.7398 199.743C45.4864 200.94 45.8597 202.681 45.8597 204.968C45.8597 207.255 45.4864 209.003 44.7398 210.213C44.0065 211.423 42.9266 212.028 41.5 212.028C40.0868 212.028 39.0068 211.423 38.2602 210.213C37.5136 209.003 37.1403 207.255 37.1403 204.968C37.1403 202.695 37.5136 200.953 38.2602 199.743C39.0068 198.533 40.0868 197.928 41.5 197.928ZM38.5602 204.968C38.5602 206.59 38.7069 207.86 39.0002 208.777L43.4399 199.942C42.9732 199.317 42.3266 199.005 41.5 199.005C40.5801 199.005 39.8601 199.497 39.3401 200.481C38.8202 201.451 38.5602 202.947 38.5602 204.968ZM41.5 210.931C42.4333 210.931 43.1599 210.446 43.6798 209.475C44.1998 208.492 44.4598 206.989 44.4598 204.968C44.4598 203.253 44.2931 201.923 43.9598 200.979L39.5201 209.894C40.0001 210.586 40.6601 210.931 41.5 210.931Z" fill="url(#paint41_linear_414_510)"/>
<path d="M78.6403 -7.2072C80.0669 -7.2072 81.1468 -6.60224 81.8801 -5.39232C82.6267 -4.1957 83 -2.45395 83 -0.167072C83 2.11981 82.6267 3.86821 81.8801 5.07812C81.1468 6.28804 80.0669 6.893 78.6403 6.893C77.2271 6.893 76.1471 6.28804 75.4005 5.07812C74.6539 3.86821 74.2806 2.11981 74.2806 -0.167072C74.2806 -2.44065 74.6539 -4.1824 75.4005 -5.39232C76.1471 -6.60224 77.2271 -7.2072 78.6403 -7.2072ZM75.7005 -0.167072C75.7005 1.45502 75.8472 2.72477 76.1405 3.64218L80.5802 -5.19288C80.1135 -5.81779 79.4669 -6.13024 78.6403 -6.13024C77.7204 -6.13024 77.0004 -5.63829 76.4804 -4.6544C75.9605 -3.68381 75.7005 -2.18803 75.7005 -0.167072ZM78.6403 5.7961C79.5736 5.7961 80.3002 5.3108 80.8201 4.34021C81.3401 3.35632 81.6001 1.85389 81.6001 -0.167072C81.6001 -1.88223 81.4334 -3.21181 81.1001 -4.15581L76.6604 4.75902C77.1404 5.4504 77.8004 5.7961 78.6403 5.7961Z" fill="url(#paint42_linear_414_510)"/>
<path d="M79.8402 28.4293H82.78V29.4864H75.1605V28.4293H78.5603V17.221L75.3205 19.1555L74.7606 18.2581L78.7603 15.785H79.8402V28.4293Z" fill="url(#paint43_linear_414_510)"/>
<path d="M79.8402 51.2221H82.78V52.2792H75.1605V51.2221H78.5603V40.0138L75.3205 41.9483L74.7606 41.0509L78.7603 38.5778H79.8402V51.2221Z" fill="url(#paint44_linear_414_510)"/>
<path d="M78.6403 61.1712C80.0669 61.1712 81.1468 61.7762 81.8801 62.9861C82.6267 64.1827 83 65.9245 83 68.2113C83 70.4982 82.6267 72.2466 81.8801 73.4565C81.1468 74.6664 80.0669 75.2714 78.6403 75.2714C77.2271 75.2714 76.1471 74.6664 75.4005 73.4565C74.6539 72.2466 74.2806 70.4982 74.2806 68.2113C74.2806 65.9378 74.6539 64.196 75.4005 62.9861C76.1471 61.7762 77.2271 61.1712 78.6403 61.1712ZM75.7005 68.2113C75.7005 69.8334 75.8472 71.1032 76.1405 72.0206L80.5802 63.1855C80.1135 62.5606 79.4669 62.2482 78.6403 62.2482C77.7204 62.2482 77.0004 62.7401 76.4804 63.724C75.9605 64.6946 75.7005 66.1904 75.7005 68.2113ZM78.6403 74.1745C79.5736 74.1745 80.3002 73.6892 80.8201 72.7186C81.3401 71.7347 81.6001 70.2323 81.6001 68.2113C81.6001 66.4962 81.4334 65.1666 81.1001 64.2226L76.6604 73.1374C77.1404 73.8288 77.8004 74.1745 78.6403 74.1745Z" fill="url(#paint45_linear_414_510)"/>
<path d="M78.6403 83.964C80.0669 83.964 81.1468 84.569 81.8801 85.7789C82.6267 86.9755 83 88.7173 83 91.0041C83 93.291 82.6267 95.0394 81.8801 96.2493C81.1468 97.4593 80.0669 98.0642 78.6403 98.0642C77.2271 98.0642 76.1471 97.4593 75.4005 96.2493C74.6539 95.0394 74.2806 93.291 74.2806 91.0041C74.2806 88.7306 74.6539 86.9888 75.4005 85.7789C76.1471 84.569 77.2271 83.964 78.6403 83.964ZM75.7005 91.0041C75.7005 92.6262 75.8472 93.896 76.1405 94.8134L80.5802 85.9783C80.1135 85.3534 79.4669 85.041 78.6403 85.041C77.7204 85.041 77.0004 85.5329 76.4804 86.5168C75.9605 87.4874 75.7005 88.9832 75.7005 91.0041ZM78.6403 96.9673C79.5736 96.9673 80.3002 96.482 80.8201 95.5114C81.3401 94.5275 81.6001 93.0251 81.6001 91.0041C81.6001 89.289 81.4334 87.9594 81.1001 87.0154L76.6604 95.9302C77.1404 96.6216 77.8004 96.9673 78.6403 96.9673Z" fill="url(#paint46_linear_414_510)"/>
</g>
<defs>
<linearGradient id="paint0_linear_414_510" x1="41.5" y1="-30" x2="41.5" y2="268.818" gradientUnits="userSpaceOnUse">
<stop stop-color="#F7DD43"/>
<stop offset="1" stop-color="#F7DD43" stop-opacity="0"/>
</linearGradient>
<linearGradient id="paint1_linear_414_510" x1="41.5" y1="-30" x2="41.5" y2="268.818" gradientUnits="userSpaceOnUse">
<stop stop-color="#F7DD43"/>
<stop offset="1" stop-color="#F7DD43" stop-opacity="0"/>
</linearGradient>
<linearGradient id="paint2_linear_414_510" x1="41.5" y1="-30" x2="41.5" y2="268.818" gradientUnits="userSpaceOnUse">
<stop stop-color="#F7DD43"/>
<stop offset="1" stop-color="#F7DD43" stop-opacity="0"/>
</linearGradient>
<linearGradient id="paint3_linear_414_510" x1="41.5" y1="-30" x2="41.5" y2="268.818" gradientUnits="userSpaceOnUse">
<stop stop-color="#F7DD43"/>
<stop offset="1" stop-color="#F7DD43" stop-opacity="0"/>
</linearGradient>
<linearGradient id="paint4_linear_414_510" x1="41.5" y1="-30" x2="41.5" y2="268.818" gradientUnits="userSpaceOnUse">
<stop stop-color="#F7DD43"/>
<stop offset="1" stop-color="#F7DD43" stop-opacity="0"/>
</linearGradient>
<linearGradient id="paint5_linear_414_510" x1="41.5" y1="-30" x2="41.5" y2="268.818" gradientUnits="userSpaceOnUse">
<stop stop-color="#F7DD43"/>
<stop offset="1" stop-color="#F7DD43" stop-opacity="0"/>
</linearGradient>
<linearGradient id="paint6_linear_414_510" x1="41.5" y1="-30" x2="41.5" y2="268.818" gradientUnits="userSpaceOnUse">
<stop stop-color="#F7DD43"/>
<stop offset="1" stop-color="#F7DD43" stop-opacity="0"/>
</linearGradient>
<linearGradient id="paint7_linear_414_510" x1="41.5" y1="-30" x2="41.5" y2="268.818" gradientUnits="userSpaceOnUse">
<stop stop-color="#F7DD43"/>
<stop offset="1" stop-color="#F7DD43" stop-opacity="0"/>
</linearGradient>
<linearGradient id="paint8_linear_414_510" x1="41.5" y1="-30" x2="41.5" y2="268.818" gradientUnits="userSpaceOnUse">
<stop stop-color="#F7DD43"/>
<stop offset="1" stop-color="#F7DD43" stop-opacity="0"/>
</linearGradient>
<linearGradient id="paint9_linear_414_510" x1="41.5" y1="-30" x2="41.5" y2="268.818" gradientUnits="userSpaceOnUse">
<stop stop-color="#F7DD43"/>
<stop offset="1" stop-color="#F7DD43" stop-opacity="0"/>
</linearGradient>
<linearGradient id="paint10_linear_414_510" x1="41.5" y1="-30" x2="41.5" y2="268.818" gradientUnits="userSpaceOnUse">
<stop stop-color="#F7DD43"/>
<stop offset="1" stop-color="#F7DD43" stop-opacity="0"/>
</linearGradient>
<linearGradient id="paint11_linear_414_510" x1="41.5" y1="-30" x2="41.5" y2="268.818" gradientUnits="userSpaceOnUse">
<stop stop-color="#F7DD43"/>
<stop offset="1" stop-color="#F7DD43" stop-opacity="0"/>
</linearGradient>
<linearGradient id="paint12_linear_414_510" x1="41.5" y1="-30" x2="41.5" y2="268.818" gradientUnits="userSpaceOnUse">
<stop stop-color="#F7DD43"/>
<stop offset="1" stop-color="#F7DD43" stop-opacity="0"/>
</linearGradient>
<linearGradient id="paint13_linear_414_510" x1="41.5" y1="-30" x2="41.5" y2="268.818" gradientUnits="userSpaceOnUse">
<stop stop-color="#F7DD43"/>
<stop offset="1" stop-color="#F7DD43" stop-opacity="0"/>
</linearGradient>
<linearGradient id="paint14_linear_414_510" x1="41.5" y1="-30" x2="41.5" y2="268.818" gradientUnits="userSpaceOnUse">
<stop stop-color="#F7DD43"/>
<stop offset="1" stop-color="#F7DD43" stop-opacity="0"/>
</linearGradient>
<linearGradient id="paint15_linear_414_510" x1="41.5" y1="-30" x2="41.5" y2="268.818" gradientUnits="userSpaceOnUse">
<stop stop-color="#F7DD43"/>
<stop offset="1" stop-color="#F7DD43" stop-opacity="0"/>
</linearGradient>
<linearGradient id="paint16_linear_414_510" x1="41.5" y1="-30" x2="41.5" y2="268.818" gradientUnits="userSpaceOnUse">
<stop stop-color="#F7DD43"/>
<stop offset="1" stop-color="#F7DD43" stop-opacity="0"/>
</linearGradient>
<linearGradient id="paint17_linear_414_510" x1="41.5" y1="-30" x2="41.5" y2="268.818" gradientUnits="userSpaceOnUse">
<stop stop-color="#F7DD43"/>
<stop offset="1" stop-color="#F7DD43" stop-opacity="0"/>
</linearGradient>
<linearGradient id="paint18_linear_414_510" x1="41.5" y1="-30" x2="41.5" y2="268.818" gradientUnits="userSpaceOnUse">
<stop stop-color="#F7DD43"/>
<stop offset="1" stop-color="#F7DD43" stop-opacity="0"/>
</linearGradient>
<linearGradient id="paint19_linear_414_510" x1="41.5" y1="-30" x2="41.5" y2="268.818" gradientUnits="userSpaceOnUse">
<stop stop-color="#F7DD43"/>
<stop offset="1" stop-color="#F7DD43" stop-opacity="0"/>
</linearGradient>
<linearGradient id="paint20_linear_414_510" x1="41.5" y1="-30" x2="41.5" y2="268.818" gradientUnits="userSpaceOnUse">
<stop stop-color="#F7DD43"/>
<stop offset="1" stop-color="#F7DD43" stop-opacity="0"/>
</linearGradient>
<linearGradient id="paint21_linear_414_510" x1="41.5" y1="-30" x2="41.5" y2="268.818" gradientUnits="userSpaceOnUse">
<stop stop-color="#F7DD43"/>
<stop offset="1" stop-color="#F7DD43" stop-opacity="0"/>
</linearGradient>
<linearGradient id="paint22_linear_414_510" x1="41.5" y1="-30" x2="41.5" y2="268.818" gradientUnits="userSpaceOnUse">
<stop stop-color="#F7DD43"/>
<stop offset="1" stop-color="#F7DD43" stop-opacity="0"/>
</linearGradient>
<linearGradient id="paint23_linear_414_510" x1="41.5" y1="-30" x2="41.5" y2="268.818" gradientUnits="userSpaceOnUse">
<stop stop-color="#F7DD43"/>
<stop offset="1" stop-color="#F7DD43" stop-opacity="0"/>
</linearGradient>
<linearGradient id="paint24_linear_414_510" x1="41.5" y1="-30" x2="41.5" y2="268.818" gradientUnits="userSpaceOnUse">
<stop stop-color="#F7DD43"/>
<stop offset="1" stop-color="#F7DD43" stop-opacity="0"/>
</linearGradient>
<linearGradient id="paint25_linear_414_510" x1="41.5" y1="-30" x2="41.5" y2="268.818" gradientUnits="userSpaceOnUse">
<stop stop-color="#F7DD43"/>
<stop offset="1" stop-color="#F7DD43" stop-opacity="0"/>
</linearGradient>
<linearGradient id="paint26_linear_414_510" x1="41.5" y1="-30" x2="41.5" y2="268.818" gradientUnits="userSpaceOnUse">
<stop stop-color="#F7DD43"/>
<stop offset="1" stop-color="#F7DD43" stop-opacity="0"/>
</linearGradient>
<linearGradient id="paint27_linear_414_510" x1="41.5" y1="-30" x2="41.5" y2="268.818" gradientUnits="userSpaceOnUse">
<stop stop-color="#F7DD43"/>
<stop offset="1" stop-color="#F7DD43" stop-opacity="0"/>
</linearGradient>
<linearGradient id="paint28_linear_414_510" x1="41.5" y1="-30" x2="41.5" y2="268.818" gradientUnits="userSpaceOnUse">
<stop stop-color="#F7DD43"/>
<stop offset="1" stop-color="#F7DD43" stop-opacity="0"/>
</linearGradient>
<linearGradient id="paint29_linear_414_510" x1="41.5" y1="-30" x2="41.5" y2="268.818" gradientUnits="userSpaceOnUse">
<stop stop-color="#F7DD43"/>
<stop offset="1" stop-color="#F7DD43" stop-opacity="0"/>
</linearGradient>
<linearGradient id="paint30_linear_414_510" x1="41.5" y1="-30" x2="41.5" y2="268.818" gradientUnits="userSpaceOnUse">
<stop stop-color="#F7DD43"/>
<stop offset="1" stop-color="#F7DD43" stop-opacity="0"/>
</linearGradient>
<linearGradient id="paint31_linear_414_510" x1="41.5" y1="-30" x2="41.5" y2="268.818" gradientUnits="userSpaceOnUse">
<stop stop-color="#F7DD43"/>
<stop offset="1" stop-color="#F7DD43" stop-opacity="0"/>
</linearGradient>
<linearGradient id="paint32_linear_414_510" x1="41.5" y1="-30" x2="41.5" y2="268.818" gradientUnits="userSpaceOnUse">
<stop stop-color="#F7DD43"/>
<stop offset="1" stop-color="#F7DD43" stop-opacity="0"/>
</linearGradient>
<linearGradient id="paint33_linear_414_510" x1="41.5" y1="-30" x2="41.5" y2="268.818" gradientUnits="userSpaceOnUse">
<stop stop-color="#F7DD43"/>
<stop offset="1" stop-color="#F7DD43" stop-opacity="0"/>
</linearGradient>
<linearGradient id="paint34_linear_414_510" x1="41.5" y1="-30" x2="41.5" y2="268.818" gradientUnits="userSpaceOnUse">
<stop stop-color="#F7DD43"/>
<stop offset="1" stop-color="#F7DD43" stop-opacity="0"/>
</linearGradient>
<linearGradient id="paint35_linear_414_510" x1="41.5" y1="-30" x2="41.5" y2="268.818" gradientUnits="userSpaceOnUse">
<stop stop-color="#F7DD43"/>
<stop offset="1" stop-color="#F7DD43" stop-opacity="0"/>
</linearGradient>
<linearGradient id="paint36_linear_414_510" x1="41.5" y1="-30" x2="41.5" y2="268.818" gradientUnits="userSpaceOnUse">
<stop stop-color="#F7DD43"/>
<stop offset="1" stop-color="#F7DD43" stop-opacity="0"/>
</linearGradient>
<linearGradient id="paint37_linear_414_510" x1="41.5" y1="-30" x2="41.5" y2="268.818" gradientUnits="userSpaceOnUse">
<stop stop-color="#F7DD43"/>
<stop offset="1" stop-color="#F7DD43" stop-opacity="0"/>
</linearGradient>
<linearGradient id="paint38_linear_414_510" x1="41.5" y1="-30" x2="41.5" y2="268.818" gradientUnits="userSpaceOnUse">
<stop stop-color="#F7DD43"/>
<stop offset="1" stop-color="#F7DD43" stop-opacity="0"/>
</linearGradient>
<linearGradient id="paint39_linear_414_510" x1="41.5" y1="-30" x2="41.5" y2="268.818" gradientUnits="userSpaceOnUse">
<stop stop-color="#F7DD43"/>
<stop offset="1" stop-color="#F7DD43" stop-opacity="0"/>
</linearGradient>
<linearGradient id="paint40_linear_414_510" x1="41.5" y1="-30" x2="41.5" y2="268.818" gradientUnits="userSpaceOnUse">
<stop stop-color="#F7DD43"/>
<stop offset="1" stop-color="#F7DD43" stop-opacity="0"/>
</linearGradient>
<linearGradient id="paint41_linear_414_510" x1="41.5" y1="-30" x2="41.5" y2="268.818" gradientUnits="userSpaceOnUse">
<stop stop-color="#F7DD43"/>
<stop offset="1" stop-color="#F7DD43" stop-opacity="0"/>
</linearGradient>
<linearGradient id="paint42_linear_414_510" x1="41.5" y1="-30" x2="41.5" y2="268.818" gradientUnits="userSpaceOnUse">
<stop stop-color="#F7DD43"/>
<stop offset="1" stop-color="#F7DD43" stop-opacity="0"/>
</linearGradient>
<linearGradient id="paint43_linear_414_510" x1="41.5" y1="-30" x2="41.5" y2="268.818" gradientUnits="userSpaceOnUse">
<stop stop-color="#F7DD43"/>
<stop offset="1" stop-color="#F7DD43" stop-opacity="0"/>
</linearGradient>
<linearGradient id="paint44_linear_414_510" x1="41.5" y1="-30" x2="41.5" y2="268.818" gradientUnits="userSpaceOnUse">
<stop stop-color="#F7DD43"/>
<stop offset="1" stop-color="#F7DD43" stop-opacity="0"/>
</linearGradient>
<linearGradient id="paint45_linear_414_510" x1="41.5" y1="-30" x2="41.5" y2="268.818" gradientUnits="userSpaceOnUse">
<stop stop-color="#F7DD43"/>
<stop offset="1" stop-color="#F7DD43" stop-opacity="0"/>
</linearGradient>
<linearGradient id="paint46_linear_414_510" x1="41.5" y1="-30" x2="41.5" y2="268.818" gradientUnits="userSpaceOnUse">
<stop stop-color="#F7DD43"/>
<stop offset="1" stop-color="#F7DD43" stop-opacity="0"/>
</linearGradient>
</defs>
</svg>
